<?xml version="1.0" encoding="UTF-8" standalone="no"?>
<!-- Created with Inkscape (http://www.inkscape.org/) -->

<svg
   xmlns:dc="http://purl.org/dc/elements/1.1/"
   xmlns:cc="http://creativecommons.org/ns#"
   xmlns:rdf="http://www.w3.org/1999/02/22-rdf-syntax-ns#"
   xmlns:svg="http://www.w3.org/2000/svg"
   xmlns="http://www.w3.org/2000/svg"
   xmlns:sodipodi="http://sodipodi.sourceforge.net/DTD/sodipodi-0.dtd"
   xmlns:inkscape="http://www.inkscape.org/namespaces/inkscape"
   width="256"
   height="256"
   viewBox="0 0 256 256"
   id="svg2"
   version="1.1"
   inkscape:version="0.91 r13725"
   sodipodi:docname="icon.svg"
   inkscape:export-filename="D:\Users\Adam\Desktop\media_controls\res\icon128.png"
   inkscape:export-xdpi="45"
   inkscape:export-ydpi="45">
  <defs
     id="defs4">
    <filter
       inkscape:collect="always"
       style="color-interpolation-filters:sRGB"
       id="filter4306"
       x="-0.035722462"
       width="1.0714449"
       y="-0.036285081"
       height="1.0725702">
      <feGaussianBlur
         inkscape:collect="always"
         stdDeviation="3.7513201"
         id="feGaussianBlur4308" />
    </filter>
  </defs>
  <sodipodi:namedview
     id="base"
     pagecolor="#ffffff"
     bordercolor="#666666"
     borderopacity="1.0"
     inkscape:pageopacity="0.0"
     inkscape:pageshadow="2"
     inkscape:zoom="2.8284271"
     inkscape:cx="114.82956"
     inkscape:cy="140.33116"
     inkscape:document-units="px"
     inkscape:current-layer="layer1"
     showgrid="false"
     units="px"
     borderlayer="false"
     inkscape:showpageshadow="false"
     inkscape:snap-bbox="true"
     inkscape:bbox-paths="true"
     inkscape:bbox-nodes="true"
     inkscape:snap-bbox-edge-midpoints="true"
     inkscape:snap-bbox-midpoints="true"
     inkscape:snap-object-midpoints="true"
     inkscape:object-paths="false"
     inkscape:snap-intersection-paths="false"
     inkscape:object-nodes="false"
     inkscape:snap-smooth-nodes="false"
     inkscape:snap-page="true"
     inkscape:snap-nodes="false"
     inkscape:snap-center="true"
     inkscape:window-width="1920"
     inkscape:window-height="1017"
     inkscape:window-x="-8"
     inkscape:window-y="-8"
     inkscape:window-maximized="1" />
  <metadata
     id="metadata7">
    <rdf:RDF>
      <cc:Work
         rdf:about="">
        <dc:format>image/svg+xml</dc:format>
        <dc:type
           rdf:resource="http://purl.org/dc/dcmitype/StillImage" />
        <dc:title />
      </cc:Work>
    </rdf:RDF>
  </metadata>
  <g
     inkscape:label="Layer 1"
     inkscape:groupmode="layer"
     id="layer1"
     transform="translate(0,-796.36216)">
    <path
       inkscape:connector-curvature="0"
       style="opacity:1;fill:#000000;fill-opacity:0.73214285;stroke:none;stroke-width:0.1;stroke-linecap:square;stroke-miterlimit:4;stroke-dasharray:none;stroke-dashoffset:0;filter:url(#filter4306)"
       d="M 49.224806,796.36216 C 21.954264,796.36216 0,817.976 0,844.82368 l 0,151.2 c 0,26.84772 21.954264,48.46162 49.224806,48.46162 l 153.581394,0 c 27.27055,0 49.22481,-21.6139 49.22481,-48.46162 l 0,-151.2 c 0,-26.84768 -21.95426,-48.46152 -49.22481,-48.46152 l -153.581394,0 z m -18.722732,54.84671 95.526886,68.5352 -95.526886,68.53519 0,-137.07039 z m 101.629996,0.50922 37.6589,0 0,137.0704 -37.6589,0 0,-137.0704 z m 51.73796,0 37.65891,0 0,137.0704 -37.65891,0 0,-137.0704 z"
       id="path4288"
       transform="matrix(0.97367441,0,0,0.96519911,6.818358,35.536018)" />
    <g
       id="g4138"
       transform="matrix(0.98823529,0,0,0.98823529,1.0117652,10.377237)">
      <path
         inkscape:connector-curvature="0"
         style="opacity:1;fill:#702570;fill-opacity:1;stroke:none;stroke-width:0.1;stroke-linecap:square;stroke-miterlimit:4;stroke-dasharray:none;stroke-dashoffset:0"
         d="m 53.193798,803.24258 c -27.270542,0 -49.2248058,21.61384 -49.2248058,48.46152 l 0,151.2 c 0,26.8477 21.9542638,48.4616 49.2248058,48.4616 l 153.581392,0 c 27.27055,0 49.22481,-21.6139 49.22481,-48.4616 l 0,-151.2 c 0,-26.84768 -21.95426,-48.46152 -49.22481,-48.46152 l -153.581392,0 z m -18.722732,54.84671 95.526884,68.5352 -95.526884,68.53519 0,-137.07039 z m 101.629994,0.50922 37.6589,0 0,137.0704 -37.6589,0 0,-137.0704 z m 51.73796,0 37.65891,0 0,137.0704 -37.65891,0 0,-137.0704 z"
         id="path4256" />
      <path
         id="rect4138"
         d="M 50.224806,798.3657 C 22.954263,798.3657 1,819.97954 1,846.82722 l 0,151.19996 c 0,26.84772 21.954263,48.46152 49.224806,48.46152 l 153.581394,0 c 27.27054,0 49.22481,-21.6138 49.22481,-48.46152 l 0,-151.19996 c 0,-26.84768 -21.95427,-48.46152 -49.22481,-48.46152 l -153.581394,0 z m -18.722732,54.84671 95.526886,68.53519 -95.526886,68.5352 0,-137.07039 z m 101.629996,0.50922 37.6589,0 0,137.0704 -37.6589,0 0,-137.0704 z m 51.73796,0 37.6589,0 0,137.0704 -37.6589,0 0,-137.0704 z"
         style="opacity:1;fill:#c246c2;fill-opacity:1;stroke:none;stroke-width:0.1;stroke-linecap:square;stroke-miterlimit:4;stroke-dasharray:none;stroke-dashoffset:0"
         inkscape:connector-curvature="0" />
    </g>
  </g>
</svg>
