<?xml version="1.0" encoding="UTF-8" standalone="no"?>
<!-- Created with Inkscape (http://www.inkscape.org/) -->

<svg
   xmlns:dc="http://purl.org/dc/elements/1.1/"
   xmlns:cc="http://creativecommons.org/ns#"
   xmlns:rdf="http://www.w3.org/1999/02/22-rdf-syntax-ns#"
   xmlns:svg="http://www.w3.org/2000/svg"
   xmlns="http://www.w3.org/2000/svg"
   xmlns:sodipodi="http://sodipodi.sourceforge.net/DTD/sodipodi-0.dtd"
   xmlns:inkscape="http://www.inkscape.org/namespaces/inkscape"
   width="640"
   height="400"
   viewBox="0 0 640 400"
   id="svg2"
   version="1.1"
   inkscape:version="0.91 r13725"
   sodipodi:docname="promotional_screenshot.svg"
   inkscape:export-filename="D:\Users\Adam\Desktop\easy_control\extra\promotional_screenshot.png"
   inkscape:export-xdpi="90"
   inkscape:export-ydpi="90">
  <defs
     id="defs4">
    <filter
       inkscape:collect="always"
       style="color-interpolation-filters:sRGB"
       id="filter4306"
       x="-0.035722461"
       width="1.0714449"
       y="-0.03628508"
       height="1.0725702">
      <feGaussianBlur
         inkscape:collect="always"
         stdDeviation="3.7513201"
         id="feGaussianBlur4308" />
    </filter>
    <filter
       inkscape:collect="always"
       style="color-interpolation-filters:sRGB"
       id="filter4183"
       x="-0.017990168"
       width="1.0359803"
       y="-0.03603939"
       height="1.0720788">
      <feGaussianBlur
         inkscape:collect="always"
         stdDeviation="1.5696844"
         id="feGaussianBlur4185" />
    </filter>
  </defs>
  <sodipodi:namedview
     id="base"
     pagecolor="#ffffff"
     bordercolor="#666666"
     borderopacity="1.0"
     inkscape:pageopacity="0.0"
     inkscape:pageshadow="2"
     inkscape:zoom="1"
     inkscape:cx="-54.706048"
     inkscape:cy="29.324915"
     inkscape:document-units="px"
     inkscape:current-layer="layer1"
     showgrid="false"
     units="px"
     borderlayer="false"
     inkscape:showpageshadow="false"
     inkscape:snap-bbox="true"
     inkscape:bbox-paths="true"
     inkscape:bbox-nodes="true"
     inkscape:snap-bbox-edge-midpoints="true"
     inkscape:snap-bbox-midpoints="true"
     inkscape:snap-object-midpoints="true"
     inkscape:object-paths="false"
     inkscape:snap-intersection-paths="false"
     inkscape:object-nodes="false"
     inkscape:snap-smooth-nodes="false"
     inkscape:snap-page="true"
     inkscape:snap-nodes="false"
     inkscape:snap-center="true"
     inkscape:window-width="1920"
     inkscape:window-height="1017"
     inkscape:window-x="-8"
     inkscape:window-y="-8"
     inkscape:window-maximized="1" />
  <metadata
     id="metadata7">
    <rdf:RDF>
      <cc:Work
         rdf:about="">
        <dc:format>image/svg+xml</dc:format>
        <dc:type
           rdf:resource="http://purl.org/dc/dcmitype/StillImage" />
        <dc:title></dc:title>
      </cc:Work>
    </rdf:RDF>
  </metadata>
  <g
     inkscape:label="Layer 1"
     inkscape:groupmode="layer"
     id="layer1"
     transform="translate(0,-652.36216)">
    <rect
       style="opacity:1;fill:#444444;fill-opacity:1;stroke:none;stroke-width:0.1;stroke-linecap:square;stroke-miterlimit:4;stroke-dasharray:none;stroke-dashoffset:0"
       id="rect4193"
       width="640"
       height="400"
       x="0"
       y="652.36218" />
    <g
       id="g4141"
       transform="matrix(0.9370254,0,0,0.9370254,36.45451,-13.38202)">
      <path
         transform="matrix(0.97367441,0,0,0.96519911,6.818358,35.536018)"
         id="path4288"
         d="M 49.224806,796.36216 C 21.954264,796.36216 0,817.976 0,844.82368 l 0,151.2 c 0,26.84772 21.954264,48.46162 49.224806,48.46162 l 153.581394,0 c 27.27055,0 49.22481,-21.6139 49.22481,-48.46162 l 0,-151.2 c 0,-26.84768 -21.95426,-48.46152 -49.22481,-48.46152 l -153.581394,0 z m -18.722732,54.84671 95.526886,68.5352 -95.526886,68.53519 0,-137.07039 z m 101.629996,0.50922 37.6589,0 0,137.0704 -37.6589,0 0,-137.0704 z m 51.73796,0 37.65891,0 0,137.0704 -37.65891,0 0,-137.0704 z"
         style="opacity:1;fill:#000000;fill-opacity:0.73214285;stroke:none;stroke-width:0.1;stroke-linecap:square;stroke-miterlimit:4;stroke-dasharray:none;stroke-dashoffset:0;filter:url(#filter4306)"
         inkscape:connector-curvature="0" />
      <path
         inkscape:connector-curvature="0"
         style="opacity:1;fill:#702570;fill-opacity:1;stroke:none;stroke-width:0.1;stroke-linecap:square;stroke-miterlimit:4;stroke-dasharray:none;stroke-dashoffset:0"
         d="m 53.579754,804.1699 c -26.949712,0 -48.6456906,21.35956 -48.6456906,47.89139 l 0,149.42121 c 0,26.5318 21.6959786,47.8914 48.6456906,47.8914 l 151.774556,0 c 26.94971,0 48.64569,-21.3596 48.64569,-47.8914 l 0,-149.42121 c 0,-26.53183 -21.69598,-47.89139 -48.64569,-47.89139 l -151.774556,0 z m -18.502465,54.20146 94.403041,67.7289 -94.403041,67.72889 0,-135.45779 z m 100.434351,0.50322 37.21585,0 0,135.45781 -37.21585,0 0,-135.45781 z m 51.12927,0 37.21587,0 0,135.45781 -37.21587,0 0,-135.45781 z"
         id="path4256" />
      <path
         id="rect4138"
         d="m 50.645691,799.3504 c -26.949713,0 -48.6456905,21.35956 -48.6456905,47.89138 l 0,149.42114 c 0,26.53188 21.6959775,47.89138 48.6456905,47.89138 l 151.774549,0 c 26.94971,0 48.6457,-21.3595 48.6457,-47.89138 l 0,-149.42114 c 0,-26.53182 -21.69599,-47.89138 -48.6457,-47.89138 l -151.774549,0 z m -18.502465,54.20145 94.403044,67.72889 -94.403044,67.72891 0,-135.4578 z m 100.434354,0.50323 37.21585,0 0,135.45781 -37.21585,0 0,-135.45781 z m 51.12927,0 37.21586,0 0,135.45781 -37.21586,0 0,-135.45781 z"
         style="opacity:1;fill:#c246c2;fill-opacity:1;stroke:none;stroke-width:0.1;stroke-linecap:square;stroke-miterlimit:4;stroke-dasharray:none;stroke-dashoffset:0"
         inkscape:connector-curvature="0" />
    </g>
    <g
       id="g4195"
       transform="matrix(1.2904027,0,0,1.2904027,55.628471,-325.85592)">
      <text
         xml:space="preserve"
         style="font-style:normal;font-weight:normal;font-size:40px;line-height:100%;font-family:sans-serif;letter-spacing:-0.06px;word-spacing:0px;fill:#000000;fill-opacity:0.48837208;stroke:none;stroke-width:1px;stroke-linecap:butt;stroke-linejoin:miter;stroke-opacity:1;filter:url(#filter4183)"
         x="193.64911"
         y="904.41974"
         id="text4173"
         sodipodi:linespacing="100%"><tspan
           sodipodi:role="line"
           id="tspan4175"
           x="193.64911"
           y="904.41974"
           style="font-size:60px;line-height:100%;letter-spacing:-0.06px;fill:#000000;fill-opacity:0.48837208">Easy</tspan><tspan
           sodipodi:role="line"
           x="193.64911"
           y="964.41974"
           id="tspan4177"
           style="font-size:60px;line-height:100%;letter-spacing:-0.06px;fill:#000000;fill-opacity:0.48837208">Control</tspan></text>
      <text
         xml:space="preserve"
         style="font-style:normal;font-weight:normal;font-size:40px;line-height:100%;font-family:sans-serif;letter-spacing:-0.06px;word-spacing:0px;fill:#953195;fill-opacity:1;stroke:none;stroke-width:1px;stroke-linecap:butt;stroke-linejoin:miter;stroke-opacity:1"
         x="193.24986"
         y="904.01996"
         id="text4187"
         sodipodi:linespacing="100%"><tspan
           sodipodi:role="line"
           id="tspan4189"
           x="193.24986"
           y="904.01996"
           style="font-size:60px;line-height:100%;letter-spacing:-0.06px;fill:#953195;fill-opacity:1">Easy</tspan><tspan
           sodipodi:role="line"
           x="193.24986"
           y="964.01996"
           id="tspan4191"
           style="font-size:60px;line-height:100%;letter-spacing:-0.06px;fill:#953195;fill-opacity:1">Control</tspan></text>
      <text
         sodipodi:linespacing="100%"
         id="text4139"
         y="903.7196"
         x="192.94951"
         style="font-style:normal;font-weight:normal;font-size:40px;line-height:100%;font-family:sans-serif;letter-spacing:-0.06px;word-spacing:0px;fill:#c246c2;fill-opacity:1;stroke:none;stroke-width:1px;stroke-linecap:butt;stroke-linejoin:miter;stroke-opacity:1"
         xml:space="preserve"><tspan
           style="font-size:60px;line-height:100%;letter-spacing:-0.06px"
           y="903.7196"
           x="192.94951"
           id="tspan4141"
           sodipodi:role="line">Easy</tspan><tspan
           style="font-size:60px;line-height:100%;letter-spacing:-0.06px"
           id="tspan4171"
           y="963.7196"
           x="192.94951"
           sodipodi:role="line">Control</tspan></text>
    </g>
  </g>
</svg>
