<?xml version="1.0" encoding="UTF-8" standalone="no"?>
<!-- Created with Inkscape (http://www.inkscape.org/) -->

<svg
   xmlns:dc="http://purl.org/dc/elements/1.1/"
   xmlns:cc="http://creativecommons.org/ns#"
   xmlns:rdf="http://www.w3.org/1999/02/22-rdf-syntax-ns#"
   xmlns:svg="http://www.w3.org/2000/svg"
   xmlns="http://www.w3.org/2000/svg"
   xmlns:sodipodi="http://sodipodi.sourceforge.net/DTD/sodipodi-0.dtd"
   xmlns:inkscape="http://www.inkscape.org/namespaces/inkscape"
   width="1400"
   height="560"
   viewBox="0 0 1400 560"
   id="svg2"
   version="1.1"
   inkscape:version="0.91 r13725"
   sodipodi:docname="promotional_marquee.svg"
   inkscape:export-filename="D:\Users\Adam\Desktop\easy_control\extra\promotional_marquee.png"
   inkscape:export-xdpi="90"
   inkscape:export-ydpi="90">
  <defs
     id="defs4">
    <filter
       inkscape:collect="always"
       style="color-interpolation-filters:sRGB"
       id="filter4306"
       x="-0.035722461"
       width="1.0714449"
       y="-0.03628508"
       height="1.0725702">
      <feGaussianBlur
         inkscape:collect="always"
         stdDeviation="3.7513201"
         id="feGaussianBlur4308" />
    </filter>
    <filter
       inkscape:collect="always"
       style="color-interpolation-filters:sRGB"
       id="filter4183"
       x="-0.017990168"
       width="1.0359803"
       y="-0.03603939"
       height="1.0720788">
      <feGaussianBlur
         inkscape:collect="always"
         stdDeviation="1.5696844"
         id="feGaussianBlur4185" />
    </filter>
  </defs>
  <sodipodi:namedview
     id="base"
     pagecolor="#ffffff"
     bordercolor="#666666"
     borderopacity="1.0"
     inkscape:pageopacity="0.0"
     inkscape:pageshadow="2"
     inkscape:zoom="0.70710678"
     inkscape:cx="-18.983737"
     inkscape:cy="248.74882"
     inkscape:document-units="px"
     inkscape:current-layer="g4152"
     showgrid="false"
     units="px"
     borderlayer="false"
     inkscape:showpageshadow="false"
     inkscape:snap-bbox="true"
     inkscape:bbox-paths="true"
     inkscape:bbox-nodes="true"
     inkscape:snap-bbox-edge-midpoints="true"
     inkscape:snap-bbox-midpoints="true"
     inkscape:snap-object-midpoints="true"
     inkscape:object-paths="false"
     inkscape:snap-intersection-paths="false"
     inkscape:object-nodes="false"
     inkscape:snap-smooth-nodes="false"
     inkscape:snap-page="true"
     inkscape:snap-nodes="false"
     inkscape:snap-center="true"
     inkscape:window-width="1920"
     inkscape:window-height="1017"
     inkscape:window-x="-8"
     inkscape:window-y="-8"
     inkscape:window-maximized="1" />
  <metadata
     id="metadata7">
    <rdf:RDF>
      <cc:Work
         rdf:about="">
        <dc:format>image/svg+xml</dc:format>
        <dc:type
           rdf:resource="http://purl.org/dc/dcmitype/StillImage" />
        <dc:title />
      </cc:Work>
    </rdf:RDF>
  </metadata>
  <g
     inkscape:label="Layer 1"
     inkscape:groupmode="layer"
     id="layer1"
     transform="translate(0,-492.36216)">
    <g
       id="g4152"
       transform="matrix(2.0909091,0,0,2.0909091,0,-1148.0314)">
      <rect
         y="784.53607"
         x="-9.5652172e-007"
         height="267.82608"
         width="669.56519"
         id="rect4193"
         style="opacity:1;fill:#444444;fill-opacity:1;stroke:none;stroke-width:0.1;stroke-linecap:square;stroke-miterlimit:4;stroke-dasharray:none;stroke-dashoffset:0" />
      <g
         id="g4172"
         transform="matrix(1.2544886,0,0,1.2544886,8.0528734,-226.09884)">
        <path
           inkscape:connector-curvature="0"
           style="opacity:1;fill:#000000;fill-opacity:0.73214285;stroke:none;stroke-width:0.1;stroke-linecap:square;stroke-miterlimit:4;stroke-dasharray:none;stroke-dashoffset:0;filter:url(#filter4306)"
           d="M 49.224806,796.36216 C 21.954264,796.36216 0,817.976 0,844.82368 l 0,151.2 c 0,26.84772 21.954264,48.46162 49.224806,48.46162 l 153.581394,0 c 27.27055,0 49.22481,-21.6139 49.22481,-48.46162 l 0,-151.2 c 0,-26.84768 -21.95426,-48.46152 -49.22481,-48.46152 l -153.581394,0 z m -18.722732,54.84671 95.526886,68.5352 -95.526886,68.53519 0,-137.07039 z m 101.629996,0.50922 37.6589,0 0,137.0704 -37.6589,0 0,-137.0704 z m 51.73796,0 37.65891,0 0,137.0704 -37.65891,0 0,-137.0704 z"
           id="path4288"
           transform="matrix(0.60445858,0,0,0.5991971,23.071417,360.84693)" />
        <path
           id="path4256"
           d="m 52.100964,838.01603 c -16.730423,0 -30.19932,13.26005 -30.19932,29.73105 l 0,92.76092 c 0,16.47098 13.468897,29.73105 30.19932,29.73105 l 94.221876,0 c 16.73043,0 30.19932,-13.26007 30.19932,-29.73105 l 0,-92.76092 c 0,-16.471 -13.46889,-29.73105 -30.19932,-29.73105 l -94.221876,0 z m -11.486359,33.64835 58.605555,42.04621 -58.605555,42.0462 0,-84.09241 z m 62.349805,0.3124 23.10365,0 0,84.09242 -23.10365,0 0,-84.09242 z m 31.74113,0 23.10367,0 0,84.09242 -23.10367,0 0,-84.09242 z"
           style="opacity:1;fill:#702570;fill-opacity:1;stroke:none;stroke-width:0.1;stroke-linecap:square;stroke-miterlimit:4;stroke-dasharray:none;stroke-dashoffset:0"
           inkscape:connector-curvature="0" />
        <path
           inkscape:connector-curvature="0"
           style="opacity:1;fill:#c246c2;fill-opacity:1;stroke:none;stroke-width:0.1;stroke-linecap:square;stroke-miterlimit:4;stroke-dasharray:none;stroke-dashoffset:0"
           d="m 50.279493,835.02408 c -16.730423,0 -30.19932,13.26005 -30.19932,29.73104 l 0,92.76088 c 0,16.47103 13.468897,29.73104 30.19932,29.73104 l 94.221877,0 c 16.73042,0 30.19932,-13.26001 30.19932,-29.73104 l 0,-92.76088 c 0,-16.47099 -13.4689,-29.73104 -30.19932,-29.73104 l -94.221877,0 z m -11.486358,33.64834 58.605556,42.0462 -58.605556,42.04621 0,-84.09241 z m 62.349805,0.31241 23.10365,0 0,84.09242 -23.10365,0 0,-84.09242 z m 31.74113,0 23.10366,0 0,84.09242 -23.10366,0 0,-84.09242 z"
           id="rect4138" />
      </g>
      <g
         id="g4192"
         transform="translate(139.89425,-23.845406)">
        <text
           sodipodi:linespacing="100%"
           id="text4173"
           y="959.05231"
           x="121.27827"
           style="font-style:normal;font-weight:normal;font-size:40px;line-height:100%;font-family:sans-serif;letter-spacing:-0.06px;word-spacing:0px;fill:#000000;fill-opacity:0.48837208;stroke:none;stroke-width:1px;stroke-linecap:butt;stroke-linejoin:miter;stroke-opacity:1;filter:url(#filter4183)"
           xml:space="preserve"><tspan
             style="font-size:60px;line-height:100%;letter-spacing:-0.06px;fill:#000000;fill-opacity:0.48837208"
             id="tspan4177"
             y="959.05231"
             x="121.27827"
             sodipodi:role="line">Easy Control</tspan></text>
        <text
           sodipodi:linespacing="100%"
           id="text4187"
           y="958.65253"
           x="120.87902"
           style="font-style:normal;font-weight:normal;font-size:40px;line-height:100%;font-family:sans-serif;letter-spacing:-0.06px;word-spacing:0px;fill:#953195;fill-opacity:1;stroke:none;stroke-width:1px;stroke-linecap:butt;stroke-linejoin:miter;stroke-opacity:1"
           xml:space="preserve"><tspan
             style="font-size:60px;line-height:100%;letter-spacing:-0.06px;fill:#953195;fill-opacity:1"
             id="tspan4191"
             y="958.65253"
             x="120.87902"
             sodipodi:role="line">Easy Control</tspan></text>
        <text
           xml:space="preserve"
           style="font-style:normal;font-weight:normal;font-size:40px;line-height:100%;font-family:sans-serif;letter-spacing:-0.06px;word-spacing:0px;fill:#c246c2;fill-opacity:1;stroke:none;stroke-width:1px;stroke-linecap:butt;stroke-linejoin:miter;stroke-opacity:1"
           x="120.57867"
           y="958.35217"
           id="text4139"
           sodipodi:linespacing="100%"><tspan
             sodipodi:role="line"
             x="120.57867"
             y="958.35217"
             id="tspan4171"
             style="font-size:60px;line-height:100%;letter-spacing:-0.06px">Easy Control</tspan></text>
      </g>
    </g>
  </g>
</svg>
